<svg width="49" height="40" viewBox="0 0 49 40" fill="none" xmlns="http://www.w3.org/2000/svg">
<path d="M21.0258 40C32.6383 40 42.0514 31.046 42.0514 20V6C42.0514 4.4087 41.3869 2.88258 40.204 1.75736C39.021 0.632141 37.4167 0 35.7437 0L22.0771 0V8.774C22.0771 10.776 22.2053 12.85 23.3092 14.554C24.0994 15.7752 25.1566 16.8204 26.4089 17.6188C27.6612 18.4171 29.0794 18.9499 30.5672 19.181L30.9699 19.243C31.1359 19.297 31.28 19.399 31.382 19.5347C31.484 19.6704 31.5389 19.8331 31.5389 20C31.5389 20.1669 31.484 20.3296 31.382 20.4653C31.28 20.601 31.1359 20.703 30.9699 20.757L30.5672 20.819C28.3934 21.1568 26.3859 22.1356 24.8284 23.6171C23.2709 25.0987 22.2419 27.0082 21.8868 29.076L21.8216 29.459C21.7649 29.6169 21.6577 29.754 21.515 29.851C21.3723 29.9481 21.2012 30.0003 21.0258 30.0003C20.8504 30.0003 20.6793 29.9481 20.5366 29.851C20.3939 29.754 20.2867 29.6169 20.23 29.459L20.1648 29.076C19.9218 27.6607 19.3617 26.3118 18.5224 25.1205C17.6831 23.9293 16.5843 22.9237 15.3005 22.172C13.5091 21.122 11.3288 21 9.22411 21H0.0253906C0.575211 31.581 9.76657 40 21.0258 40Z" fill="white"/>
<path d="M0 19H9.22395C11.3286 19 13.509 18.878 15.3004 17.828C16.7007 17.0073 17.8795 15.886 18.7423 14.554C19.8461 12.85 19.9744 10.776 19.9744 8.774V0H6.30769C4.63479 0 3.0304 0.632141 1.84748 1.75736C0.664558 2.88258 0 4.4087 0 6L0 19ZM48.8373 2C48.8373 2.53043 48.6158 3.03914 48.2215 3.41421C47.8272 3.78929 47.2924 4 46.7347 4C46.1771 4 45.6423 3.78929 45.248 3.41421C44.8537 3.03914 44.6322 2.53043 44.6322 2C44.6322 1.46957 44.8537 0.960859 45.248 0.585786C45.6423 0.210714 46.1771 0 46.7347 0C47.2924 0 47.8272 0.210714 48.2215 0.585786C48.6158 0.960859 48.8373 1.46957 48.8373 2Z" fill="white"/>
</svg>
