<svg width="164" height="40" viewBox="0 0 164 40" fill="none" xmlns="http://www.w3.org/2000/svg">
<g clip-path="url(#clip0_2003_237)">
<path d="M21.0258 40C32.6383 40 42.0514 31.046 42.0514 20V6C42.0514 4.4087 41.3869 2.88258 40.204 1.75736C39.021 0.632141 37.4167 0 35.7437 0L22.0771 0V8.774C22.0771 10.776 22.2053 12.85 23.3092 14.554C24.0994 15.7752 25.1566 16.8204 26.4089 17.6188C27.6612 18.4171 29.0794 18.9499 30.5672 19.181L30.9699 19.243C31.1359 19.297 31.28 19.399 31.382 19.5347C31.484 19.6704 31.5389 19.8331 31.5389 20C31.5389 20.1669 31.484 20.3296 31.382 20.4653C31.28 20.601 31.1359 20.703 30.9699 20.757L30.5672 20.819C28.3934 21.1568 26.3859 22.1356 24.8284 23.6171C23.2709 25.0987 22.2419 27.0082 21.8868 29.076L21.8216 29.459C21.7649 29.6169 21.6577 29.754 21.515 29.851C21.3723 29.9481 21.2012 30.0003 21.0258 30.0003C20.8504 30.0003 20.6793 29.9481 20.5366 29.851C20.3939 29.754 20.2867 29.6169 20.23 29.459L20.1648 29.076C19.9218 27.6607 19.3617 26.3118 18.5224 25.1205C17.6831 23.9293 16.5843 22.9237 15.3005 22.172C13.5091 21.122 11.3288 21 9.22411 21H0.0253906C0.575211 31.581 9.76657 40 21.0258 40Z" fill="white"/>
<path d="M0 19H9.22395C11.3286 19 13.509 18.878 15.3004 17.828C16.7007 17.0073 17.8795 15.886 18.7423 14.554C19.8461 12.85 19.9744 10.776 19.9744 8.774V0H6.30769C4.63479 0 3.0304 0.632141 1.84748 1.75736C0.664558 2.88258 0 4.4087 0 6L0 19ZM48.8373 2C48.8373 2.53043 48.6158 3.03914 48.2215 3.41421C47.8272 3.78929 47.2924 4 46.7347 4C46.1771 4 45.6423 3.78929 45.248 3.41421C44.8537 3.03914 44.6322 2.53043 44.6322 2C44.6322 1.46957 44.8537 0.960859 45.248 0.585786C45.6423 0.210714 46.1771 0 46.7347 0C47.2924 0 47.8272 0.210714 48.2215 0.585786C48.6158 0.960859 48.8373 1.46957 48.8373 2Z" fill="white"/>
<path d="M62.1225 25.776H69.2905V30H56.6505V7.536H62.1225V25.776ZM80.0285 30.256C78.2792 30.256 76.7005 29.8827 75.2925 29.136C73.9058 28.3893 72.8072 27.3227 71.9965 25.936C71.2072 24.5493 70.8125 22.928 70.8125 21.072C70.8125 19.2373 71.2178 17.6267 72.0285 16.24C72.8392 14.832 73.9485 13.7547 75.3565 13.008C76.7645 12.2613 78.3432 11.888 80.0925 11.888C81.8418 11.888 83.4205 12.2613 84.8285 13.008C86.2365 13.7547 87.3458 14.832 88.1565 16.24C88.9672 17.6267 89.3725 19.2373 89.3725 21.072C89.3725 22.9067 88.9565 24.528 88.1245 25.936C87.3138 27.3227 86.1938 28.3893 84.7645 29.136C83.3565 29.8827 81.7778 30.256 80.0285 30.256ZM80.0285 25.52C81.0738 25.52 81.9592 25.136 82.6845 24.368C83.4312 23.6 83.8045 22.5013 83.8045 21.072C83.8045 19.6427 83.4418 18.544 82.7165 17.776C82.0125 17.008 81.1378 16.624 80.0925 16.624C79.0258 16.624 78.1405 17.008 77.4365 17.776C76.7325 18.5227 76.3805 19.6213 76.3805 21.072C76.3805 22.5013 76.7218 23.6 77.4045 24.368C78.1085 25.136 78.9832 25.52 80.0285 25.52ZM97.7475 15.12C98.3875 14.1387 99.1875 13.3707 100.148 12.816C101.108 12.24 102.174 11.952 103.348 11.952V17.744H101.844C100.478 17.744 99.4542 18.0427 98.7715 18.64C98.0888 19.216 97.7475 20.24 97.7475 21.712V30H92.2755V12.144H97.7475V15.12ZM122.795 20.784C122.795 21.296 122.763 21.8293 122.699 22.384H110.315C110.4 23.4933 110.752 24.3467 111.371 24.944C112.011 25.52 112.79 25.808 113.707 25.808C115.072 25.808 116.022 25.232 116.555 24.08H122.379C122.08 25.2533 121.536 26.3093 120.747 27.248C119.979 28.1867 119.008 28.9227 117.835 29.456C116.662 29.9893 115.35 30.256 113.899 30.256C112.15 30.256 110.592 29.8827 109.227 29.136C107.862 28.3893 106.795 27.3227 106.027 25.936C105.259 24.5493 104.875 22.928 104.875 21.072C104.875 19.216 105.248 17.5947 105.995 16.208C106.763 14.8213 107.83 13.7547 109.195 13.008C110.56 12.2613 112.128 11.888 113.899 11.888C115.627 11.888 117.163 12.2507 118.507 12.976C119.851 13.7013 120.896 14.736 121.643 16.08C122.411 17.424 122.795 18.992 122.795 20.784ZM117.195 19.344C117.195 18.4053 116.875 17.6587 116.235 17.104C115.595 16.5493 114.795 16.272 113.835 16.272C112.918 16.272 112.139 16.5387 111.499 17.072C110.88 17.6053 110.496 18.3627 110.347 19.344H117.195ZM148.466 11.952C150.684 11.952 152.444 12.624 153.746 13.968C155.068 15.312 155.73 17.1787 155.73 19.568V30H150.29V20.304C150.29 19.152 149.98 18.2667 149.362 17.648C148.764 17.008 147.932 16.688 146.866 16.688C145.799 16.688 144.956 17.008 144.338 17.648C143.74 18.2667 143.442 19.152 143.442 20.304V30H138.002V20.304C138.002 19.152 137.692 18.2667 137.074 17.648C136.476 17.008 135.644 16.688 134.578 16.688C133.511 16.688 132.668 17.008 132.05 17.648C131.452 18.2667 131.154 19.152 131.154 20.304V30H125.682V12.144H131.154V14.384C131.708 13.6373 132.434 13.0507 133.33 12.624C134.226 12.176 135.239 11.952 136.37 11.952C137.714 11.952 138.908 12.24 139.954 12.816C141.02 13.392 141.852 14.2133 142.45 15.28C143.068 14.2987 143.911 13.4987 144.978 12.88C146.044 12.2613 147.207 11.952 148.466 11.952Z" fill="white"/>
</g>
<defs>
<clipPath id="clip0_2003_237">
<rect width="164" height="40" fill="white"/>
</clipPath>
</defs>
</svg>
